<svg width="109" height="17" viewBox="0 0 109 17" fill="none" xmlns="http://www.w3.org/2000/svg">
<path d="M8.5 1.26413L10.339 5.53451L10.4564 5.80719L10.7521 5.83461L15.3817 6.26399L11.8886 9.33262L11.6656 9.52856L11.7309 9.81819L12.7531 14.3539L8.75528 11.9801L8.5 11.8285L8.24472 11.9801L4.24687 14.3539L5.26913 9.81819L5.33441 9.52856L5.11136 9.33262L1.61828 6.264L6.24794 5.83461L6.54356 5.80719L6.66099 5.53451L8.5 1.26413Z" fill="#E1A661" stroke="#E1A661"/>
<path d="M31.5 1.26413L33.339 5.53451L33.4564 5.80719L33.7521 5.83461L38.3817 6.26399L34.8886 9.33262L34.6656 9.52856L34.7309 9.81819L35.7531 14.3539L31.7553 11.9801L31.5 11.8285L31.2447 11.9801L27.2469 14.3539L28.2691 9.81819L28.3344 9.52856L28.1114 9.33262L24.6183 6.264L29.2479 5.83461L29.5436 5.80719L29.661 5.53451L31.5 1.26413Z" fill="#E1A661" stroke="#E1A661"/>
<path d="M54.5 1.26413L56.339 5.53451L56.4564 5.80719L56.7521 5.83461L61.3817 6.26399L57.8886 9.33262L57.6656 9.52856L57.7309 9.81819L58.7531 14.3539L54.7553 11.9801L54.5 11.8285L54.2447 11.9801L50.2469 14.3539L51.2691 9.81819L51.3344 9.52856L51.1114 9.33262L47.6183 6.264L52.2479 5.83461L52.5436 5.80719L52.661 5.53451L54.5 1.26413Z" fill="#E1A661" stroke="#E1A661"/>
<path d="M77.5 1.26413L79.339 5.53451L79.4564 5.80719L79.7521 5.83461L84.3817 6.26399L80.8886 9.33262L80.6656 9.52856L80.7309 9.81819L81.7531 14.3539L77.7553 11.9801L77.5 11.8285L77.2447 11.9801L73.2469 14.3539L74.2691 9.81819L74.3344 9.52856L74.1114 9.33262L70.6183 6.264L75.2479 5.83461L75.5436 5.80719L75.661 5.53451L77.5 1.26413Z" fill="#E1A661" stroke="#E1A661"/>
<path d="M100.5 1.26413L102.339 5.53451L102.456 5.80719L102.752 5.83461L107.382 6.26399L103.889 9.33262L103.666 9.52856L103.731 9.81819L104.753 14.3539L100.755 11.9801L100.5 11.8285L100.245 11.9801L96.2469 14.3539L97.2691 9.81819L97.3344 9.52856L97.1114 9.33262L93.6183 6.264L98.2479 5.83461L98.5436 5.80719L98.661 5.53451L100.5 1.26413Z" fill="#E1A661" stroke="#E1A661"/>
</svg>
