<svg xmlns="http://www.w3.org/2000/svg">
  <symbol id="cart" viewBox="0 0 20 20" fill='none'>
    <rect x="2" y="5" width="16" height="13" rx="1" fill="white"/>
    <mask id="path-2-inside-1_150_37" fill="white">
    <rect x="2" y="5" width="16" height="13" rx="1"/>
    </mask>
    <rect x="2" y="5" width="16" height="13" rx="1" stroke="#303030" stroke-width="1.6" mask="url(#path-2-inside-1_150_37)"/>
    <path d="M6 9L6 6C6 3.79086 7.79086 2 10 2V2C12.2091 2 14 3.79086 14 6L14 9" stroke="#303030" stroke-width="1.6"/>
  </symbol>
  <symbol id="chart" viewBox="0 0 20 20">
    <line x1="5.1" y1="10" x2="5.1" y2="17" stroke-width="2.2"/>
    <line x1="10.1" y1="2" x2="10.1" y2="17" stroke-width="2.2"/>
    <line x1="15.1" y1="5" x2="15.1" y2="17" stroke-width="2.2"/>
  </symbol>
  <symbol id="favorite" viewBox="0 0 20 20">
    <path d="M9.99998 17.5C9.46248 17.0233 8.85498 16.5275 8.21248 16H8.20415C5.94165 14.15 3.37748 12.0566 2.24498 9.54829C1.87291 8.74973 1.67573 7.8809 1.66664 6.99996C1.66415 5.7912 2.14895 4.63245 3.01149 3.7856C3.87402 2.93875 5.04147 2.47529 6.24998 2.49996C7.23384 2.50151 8.19651 2.78586 9.02331 3.31913C9.38662 3.55493 9.71533 3.84017 9.99998 4.16663C10.2862 3.84145 10.615 3.55638 10.9775 3.31913C11.8039 2.78576 12.7664 2.50139 13.75 2.49996C14.9585 2.47529 16.1259 2.93875 16.9885 3.7856C17.851 4.63245 18.3358 5.7912 18.3333 6.99996C18.3248 7.88231 18.1276 8.75262 17.755 9.55246C16.6225 12.0608 14.0591 14.1533 11.7966 16L11.7883 16.0066C11.145 16.5308 10.5383 17.0266 10.0008 17.5066L9.99998 17.5ZM6.24998 4.16663C5.47374 4.15691 4.72504 4.454 4.16665 4.99329C3.62863 5.52176 3.32794 6.24583 3.33324 6.99996C3.34275 7.64204 3.48817 8.27484 3.75998 8.85663C4.29457 9.93888 5.0159 10.9183 5.89081 11.75C6.71665 12.5833 7.66665 13.39 8.48831 14.0683C8.71581 14.2558 8.94748 14.445 9.17915 14.6341L9.32498 14.7533C9.54748 14.935 9.77748 15.1233 9.99998 15.3083L10.0108 15.2983L10.0158 15.2941H10.0208L10.0283 15.2883H10.0325H10.0366L10.0516 15.2758L10.0858 15.2483L10.0916 15.2433L10.1008 15.2366H10.1058L10.1133 15.23L10.6666 14.7758L10.8116 14.6566C11.0458 14.4658 11.2775 14.2766 11.505 14.0891C12.3266 13.4108 13.2775 12.605 14.1033 11.7675C14.9783 10.9363 15.6997 9.95705 16.2341 8.87496C16.5109 8.28813 16.6584 7.64871 16.6667 6.99996C16.6701 6.24816 16.3696 5.52687 15.8333 4.99996C15.276 4.45823 14.5272 4.1587 13.75 4.16663C12.8016 4.15857 11.8949 4.5561 11.2583 5.25913L9.99998 6.70913L8.74165 5.25913C8.10503 4.5561 7.19838 4.15857 6.24998 4.16663Z" fill="#303030"/>
  </symbol>
  <symbol id="heart" viewBox="0 0 24 24">
    <path d="M2 8.40001C1.99975 6.95035 2.58239 5.56146 3.61681 4.54584C4.65124 3.53022 6.05058 2.97317 7.5 3.00001C9.21732 2.99089 10.856 3.71919 12 5.00001C13.144 3.71919 14.7827 2.99089 16.5 3.00001C17.9494 2.97317 19.3488 3.53022 20.3832 4.54584C21.4176 5.56146 22.0002 6.95035 22 8.40001C22 13.756 15.621 17.8 12 21C8.387 17.773 2 13.76 2 8.40001Z"/>
  </symbol>
  <symbol id="eye" viewBox="0 0 24 24">
    <path fill-rule="evenodd" clip-rule="evenodd" d="M13.0044 3.5C13.0044 2.94772 12.5567 2.5 12.0044 2.5C11.4521 2.5 11.0044 2.94772 11.0044 3.5V5.54989C10.0448 5.64609 9.12848 5.87731 8.27405 6.20772L7.4446 5.05037C7.12289 4.60146 6.49817 4.49836 6.04927 4.82007C5.60036 5.14179 5.49726 5.76651 5.81898 6.21541L6.45792 7.10695C5.92702 7.43178 5.434 7.79271 4.98539 8.17708C3.24791 9.6658 2 11.6684 2 13.5C2 15.3316 3.24791 17.3342 4.98539 18.8229C6.76222 20.3453 9.23586 21.5 12 21.5C14.7639 21.5 17.2376 20.3462 19.0145 18.8241C20.7522 17.3355 22 15.333 22 13.5C22 11.667 20.7522 9.66444 19.0145 8.17591C18.6848 7.89346 18.331 7.62368 17.9559 7.37161L18.6253 6.43759C18.947 5.98869 18.844 5.36398 18.3951 5.04225C17.9462 4.72053 17.3214 4.82362 16.9997 5.27252L16.1918 6.39975C15.2102 5.96793 14.1376 5.66528 13.0044 5.55075V3.5ZM12 9.5C9.79086 9.5 8 11.2909 8 13.5C8 15.7091 9.79086 17.5 12 17.5C14.2091 17.5 16 15.7091 16 13.5C16 11.2909 14.2091 9.5 12 9.5Z"/>
  </symbol>
  <symbol id="slide-next" viewBox="0 0 17 8">
    <path d="M16.3536 4.35355C16.5488 4.15829 16.5488 3.84171 16.3536 3.64645L13.1716 0.464465C12.9763 0.269203 12.6597 0.269203 12.4645 0.464465C12.2692 0.659727 12.2692 0.97631 12.4645 1.17157L15.2929 4L12.4645 6.82843C12.2692 7.02369 12.2692 7.34027 12.4645 7.53553C12.6597 7.73079 12.9763 7.73079 13.1716 7.53553L16.3536 4.35355ZM4.37114e-08 4.5L16 4.5L16 3.5L-4.37114e-08 3.5L4.37114e-08 4.5Z" fill="black"/>
  </symbol>
  <symbol id="slide-prev" viewBox="0 0 17 8">
    <path d="M0.646446 4.35355C0.451185 4.15829 0.451185 3.84171 0.646446 3.64645L3.82843 0.464465C4.02369 0.269203 4.34027 0.269203 4.53553 0.464465C4.7308 0.659727 4.7308 0.97631 4.53553 1.17157L1.70711 4L4.53553 6.82843C4.7308 7.02369 4.7308 7.34027 4.53553 7.53553C4.34027 7.73079 4.02369 7.73079 3.82843 7.53553L0.646446 4.35355ZM17 4.5L1 4.5L1 3.5L17 3.5L17 4.5Z" fill="black"/>
  </symbol>
  <symbol id="dropdown" viewBox="0 0 10 16" fill="none">
    <path d="M1.07102 0.999977L8.14209 8.07104L1.07102 15.1421" stroke="#303030" stroke-width="2"/>
  </symbol>
  <symbol id="share" viewBox="0 0 20 20">
    <path fill-rule="evenodd" clip-rule="evenodd" d="M11.6667 4.58329C11.6667 2.97246 12.9725 1.66663 14.5833 1.66663C16.1942 1.66663 17.5 2.97246 17.5 4.58329C17.5 6.19411 16.1942 7.49996 14.5833 7.49996C13.769 7.49996 13.0327 7.16626 12.5036 6.62816L8.22756 9.21884C8.29649 9.46745 8.33333 9.7294 8.33333 9.99996C8.33333 10.243 8.3036 10.4791 8.24758 10.7049L12.6009 13.2773C13.1212 12.7949 13.8178 12.5 14.5833 12.5C16.1942 12.5 17.5 13.8058 17.5 15.4166C17.5 17.0274 16.1942 18.3333 14.5833 18.3333C12.9725 18.3333 11.6667 17.0274 11.6667 15.4166C11.6667 15.1736 11.6964 14.9375 11.7524 14.7118L7.39908 12.1394C6.87875 12.6217 6.18214 12.9166 5.41667 12.9166C3.80585 12.9166 2.5 11.6108 2.5 9.99996C2.5 8.38914 3.80585 7.08329 5.41667 7.08329C6.15373 7.08329 6.82695 7.3567 7.34042 7.80763L11.7222 5.15284C11.6858 4.96864 11.6667 4.7782 11.6667 4.58329ZM14.5833 3.33329C13.893 3.33329 13.3333 3.89294 13.3333 4.58329C13.3333 5.27364 13.893 5.83329 14.5833 5.83329C15.2737 5.83329 15.8333 5.27364 15.8333 4.58329C15.8333 3.89294 15.2737 3.33329 14.5833 3.33329ZM5.41667 8.74996C4.72632 8.74996 4.16667 9.30961 4.16667 9.99996C4.16667 10.6903 4.72632 11.25 5.41667 11.25C6.10701 11.25 6.66667 10.6903 6.66667 9.99996C6.66667 9.30961 6.10701 8.74996 5.41667 8.74996ZM14.5833 14.1666C13.893 14.1666 13.3333 14.7263 13.3333 15.4166C13.3333 16.107 13.893 16.6666 14.5833 16.6666C15.2737 16.6666 15.8333 16.107 15.8333 15.4166C15.8333 14.7263 15.2737 14.1666 14.5833 14.1666Z"/>
  </symbol>
</svg>
